<svg xmlns="http://www.w3.org/2000/svg" xmlns:xlink="http://www.w3.org/1999/xlink" contentStyleType="text/css" height="392px" preserveAspectRatio="none" style="width:749px;height:392px;background:#FFFFFF;" version="1.1" viewBox="0 0 749 392" width="749px" zoomAndPan="magnify"><title>Building Financial Software with</title><defs/><g><text fill="#000000" font-family="sans-serif" font-size="14" font-weight="bold" lengthAdjust="spacing" textLength="215.4551" x="260.238" y="25.1074">Building Financial Software with</text><text fill="#000000" font-family="sans-serif" font-size="14" font-weight="bold" lengthAdjust="spacing" textLength="157.9375" x="288.9968" y="43.7285">Generative AI Roadmap</text><g id="elem_into"><ellipse cx="101.6793" cy="106.7435" fill="#F1F1F1" rx="95.6793" ry="42.5013" style="stroke:#181818;stroke-width:0.5;"/><text fill="#000000" font-family="sans-serif" font-size="14" lengthAdjust="spacing" textLength="61.4824" x="70.9381" y="91.9193">Chapter 1</text><text fill="#000000" font-family="sans-serif" font-size="14" font-style="italic" lengthAdjust="spacing" textLength="119.0684" x="42.1451" y="110.5404">Introducing Fintech</text><text fill="#000000" font-family="sans-serif" font-size="14" font-style="italic" lengthAdjust="spacing" textLength="29.5586" x="86.9" y="129.1615">Files</text></g><g id="elem_parsing"><ellipse cx="300.7022" cy="106.7435" fill="#F1F1F1" rx="68.7022" ry="42.5013" style="stroke:#181818;stroke-width:0.5;"/><text fill="#000000" font-family="sans-serif" font-size="14" lengthAdjust="spacing" textLength="61.4824" x="269.961" y="91.9193">Chapter 2</text><text fill="#000000" font-family="sans-serif" font-size="14" font-style="italic" lengthAdjust="spacing" textLength="80.917" x="260.2437" y="110.5404">Parsing ACH</text><text fill="#000000" font-family="sans-serif" font-size="14" font-style="italic" lengthAdjust="spacing" textLength="29.5586" x="285.9229" y="129.1615">Files</text></g><g id="elem_docker"><ellipse cx="459.4599" cy="106.5764" fill="#F1F1F1" rx="54.9599" ry="29.3342" style="stroke:#181818;stroke-width:0.5;"/><text fill="#000000" font-family="sans-serif" font-size="14" lengthAdjust="spacing" textLength="61.4824" x="428.7187" y="101.0627">Chapter 3</text><text fill="#000000" font-family="sans-serif" font-size="14" font-style="italic" lengthAdjust="spacing" textLength="44.3447" x="437.2876" y="119.6838">Docker</text></g><g id="elem_apis"><ellipse cx="604.4599" cy="106.5764" fill="#F1F1F1" rx="54.9599" ry="29.3342" style="stroke:#181818;stroke-width:0.5;"/><text fill="#000000" font-family="sans-serif" font-size="14" lengthAdjust="spacing" textLength="61.4824" x="573.7187" y="101.0627">Chapter 4</text><text fill="#000000" font-family="sans-serif" font-size="14" font-style="italic" lengthAdjust="spacing" textLength="49.793" x="579.5634" y="119.6838">FastAPI</text></g><g id="elem_db"><ellipse cx="604.4599" cy="238.5764" fill="#F1F1F1" rx="54.9599" ry="29.3342" style="stroke:#181818;stroke-width:0.5;"/><text fill="#000000" font-family="sans-serif" font-size="14" lengthAdjust="spacing" textLength="61.4824" x="573.7187" y="233.0627">Chapter 5</text><text fill="#000000" font-family="sans-serif" font-size="14" font-style="italic" lengthAdjust="spacing" textLength="55.248" x="576.8359" y="251.6838">Postgres</text></g><g id="elem_ui"><ellipse cx="459.4599" cy="238.5764" fill="#F1F1F1" rx="54.9599" ry="29.3342" style="stroke:#181818;stroke-width:0.5;"/><text fill="#000000" font-family="sans-serif" font-size="14" lengthAdjust="spacing" textLength="61.4824" x="428.7187" y="233.0627">Chapter 6</text><text fill="#000000" font-family="sans-serif" font-size="14" font-style="italic" lengthAdjust="spacing" textLength="42.7861" x="438.0669" y="251.6838">Next.js</text></g><g id="elem_mvp"><ellipse cx="314.4599" cy="238.5764" fill="#F1F1F1" rx="54.9599" ry="29.3342" style="stroke:#181818;stroke-width:0.5;"/><text fill="#000000" font-family="sans-serif" font-size="14" lengthAdjust="spacing" textLength="61.4824" x="283.7187" y="233.0627">Chapter 7</text><text fill="#000000" font-family="sans-serif" font-size="14" font-style="italic" lengthAdjust="spacing" textLength="30.3379" x="299.291" y="251.6838">MVP</text></g><g id="elem_exceptions"><ellipse cx="127.2863" cy="238.5764" fill="#F1F1F1" rx="96.7863" ry="29.3342" style="stroke:#181818;stroke-width:0.5;"/><text fill="#000000" font-family="sans-serif" font-size="14" lengthAdjust="spacing" textLength="61.4824" x="96.545" y="233.0627">Chapter 8</text><text fill="#000000" font-family="sans-serif" font-size="14" font-style="italic" lengthAdjust="spacing" textLength="120.6338" x="66.9694" y="251.6838">Exception Handling</text></g><g id="elem_searching"><ellipse cx="127.3542" cy="357.5764" fill="#F1F1F1" rx="113.8542" ry="29.3342" style="stroke:#181818;stroke-width:0.5;"/><text fill="#000000" font-family="sans-serif" font-size="14" lengthAdjust="spacing" textLength="61.4824" x="96.613" y="352.0627">Chapter 9</text><text fill="#000000" font-family="sans-serif" font-size="14" font-style="italic" lengthAdjust="spacing" textLength="144.7715" x="54.9684" y="370.6838">Searching and Auditing</text></g><g id="elem_companies"><ellipse cx="338.558" cy="357.5764" fill="#F1F1F1" rx="61.558" ry="29.3342" style="stroke:#181818;stroke-width:0.5;"/><text fill="#000000" font-family="sans-serif" font-size="14" lengthAdjust="spacing" textLength="69.2686" x="303.9237" y="352.0627">Chapter 10</text><text fill="#000000" font-family="sans-serif" font-size="14" font-style="italic" lengthAdjust="spacing" textLength="70.8135" x="303.1512" y="370.6838">Companies</text></g><g id="elem_iat"><ellipse cx="511.4024" cy="357.5764" fill="#F1F1F1" rx="76.4024" ry="29.3342" style="stroke:#181818;stroke-width:0.5;"/><text fill="#000000" font-family="sans-serif" font-size="14" lengthAdjust="spacing" textLength="69.2686" x="476.7681" y="352.0627">Chapter 11</text><text fill="#000000" font-family="sans-serif" font-size="14" font-style="italic" lengthAdjust="spacing" textLength="91.8066" x="465.4991" y="370.6838">IAT and OFAC</text></g><g id="elem_end"><ellipse cx="683.4655" cy="357.5764" fill="#F1F1F1" rx="60.4655" ry="29.3342" style="stroke:#181818;stroke-width:0.5;"/><text fill="#000000" font-family="sans-serif" font-size="14" lengthAdjust="spacing" textLength="69.2686" x="648.8313" y="352.0627">Chapter 12</text><text fill="#000000" font-family="sans-serif" font-size="14" font-style="italic" lengthAdjust="spacing" textLength="52.9102" x="657.0105" y="370.6838">Wrap up</text></g><!--link into to parsing--><g id="link_into_parsing"><path d="M197.11,106.7422 C208.69,106.7422 214.27,106.7422 225.84,106.7422 " fill="none" id="into-to-parsing" style="stroke:#181818;stroke-width:1.0;"/><polygon fill="#181818" points="231.84,106.7422,222.84,102.7422,226.84,106.7422,222.84,110.7422,231.84,106.7422" style="stroke:#181818;stroke-width:1.0;"/></g><!--link parsing to docker--><g id="link_parsing_docker"><path d="M369.13,106.7422 C380.9,106.7422 386.66,106.7422 398.43,106.7422 " fill="none" id="parsing-to-docker" style="stroke:#181818;stroke-width:1.0;"/><polygon fill="#181818" points="404.43,106.7422,395.43,102.7422,399.43,106.7422,395.43,110.7422,404.43,106.7422" style="stroke:#181818;stroke-width:1.0;"/></g><!--link docker to apis--><g id="link_docker_apis"><path d="M514.72,106.7422 C526.3,106.7422 531.87,106.7422 543.44,106.7422 " fill="none" id="docker-to-apis" style="stroke:#181818;stroke-width:1.0;"/><polygon fill="#181818" points="549.44,106.7422,540.44,102.7422,544.44,106.7422,540.44,110.7422,549.44,106.7422" style="stroke:#181818;stroke-width:1.0;"/></g><!--link apis to db--><g id="link_apis_db"><path d="M604.5,136.2722 C604.5,157.7922 604.5,181.2122 604.5,202.8322 " fill="none" id="apis-to-db" style="stroke:#181818;stroke-width:1.0;"/><polygon fill="#181818" points="604.5,208.8322,608.5,199.8322,604.5,203.8322,600.5,199.8322,604.5,208.8322" style="stroke:#181818;stroke-width:1.0;"/></g><!--reverse link ui to db--><g id="link_ui_db"><path d="M520.72,238.7422 C532.3,238.7422 537.87,238.7422 549.44,238.7422 " fill="none" id="ui-backto-db" style="stroke:#181818;stroke-width:1.0;"/><polygon fill="#181818" points="514.72,238.7422,523.72,242.7422,519.72,238.7422,523.72,234.7422,514.72,238.7422" style="stroke:#181818;stroke-width:1.0;"/></g><!--reverse link mvp to ui--><g id="link_mvp_ui"><path d="M375.72,238.7422 C387.3,238.7422 392.87,238.7422 404.44,238.7422 " fill="none" id="mvp-backto-ui" style="stroke:#181818;stroke-width:1.0;"/><polygon fill="#181818" points="369.72,238.7422,378.72,242.7422,374.72,238.7422,378.72,234.7422,369.72,238.7422" style="stroke:#181818;stroke-width:1.0;"/></g><!--reverse link exceptions to mvp--><g id="link_exceptions_mvp"><path d="M230.65,238.7422 C242.23,238.7422 247.82,238.7422 259.4,238.7422 " fill="none" id="exceptions-backto-mvp" style="stroke:#181818;stroke-width:1.0;"/><polygon fill="#181818" points="224.65,238.7422,233.65,242.7422,229.65,238.7422,233.65,234.7422,224.65,238.7422" style="stroke:#181818;stroke-width:1.0;"/></g><!--link exceptions to searching--><g id="link_exceptions_searching"><path d="M127.5,268.3622 C127.5,286.4922 127.5,303.8622 127.5,322.0122 " fill="none" id="exceptions-to-searching" style="stroke:#181818;stroke-width:1.0;"/><polygon fill="#181818" points="127.5,328.0122,131.5,319.0122,127.5,323.0122,123.5,319.0122,127.5,328.0122" style="stroke:#181818;stroke-width:1.0;"/></g><!--link searching to companies--><g id="link_searching_companies"><path d="M241.65,357.7422 C253.38,357.7422 259.11,357.7422 270.84,357.7422 " fill="none" id="searching-to-companies" style="stroke:#181818;stroke-width:1.0;"/><polygon fill="#181818" points="276.84,357.7422,267.84,353.7422,271.84,357.7422,267.84,361.7422,276.84,357.7422" style="stroke:#181818;stroke-width:1.0;"/></g><!--link companies to iat--><g id="link_companies_iat"><path d="M400.33,357.7422 C411.77,357.7422 417.2,357.7422 428.64,357.7422 " fill="none" id="companies-to-iat" style="stroke:#181818;stroke-width:1.0;"/><polygon fill="#181818" points="434.64,357.7422,425.64,353.7422,429.64,357.7422,425.64,361.7422,434.64,357.7422" style="stroke:#181818;stroke-width:1.0;"/></g><!--link iat to end--><g id="link_iat_end"><path d="M588.09,357.7422 C599.65,357.7422 605.2,357.7422 616.75,357.7422 " fill="none" id="iat-to-end" style="stroke:#181818;stroke-width:1.0;"/><polygon fill="#181818" points="622.75,357.7422,613.75,353.7422,617.75,357.7422,613.75,361.7422,622.75,357.7422" style="stroke:#181818;stroke-width:1.0;"/></g><!--SRC=[TP9BJyCm3CVl_HIv0OVoVahJf58Osm6O68BBBbwJjOOkYP9qsyUdITUaKiiX3yS__nFREQeqoq0pGX5o1Pl8e2aPUQomfCXpCa4EF4CeoKAipGuK8piqnPA_CCuK6Dmoaip8Xm2w0Hb5hTnnMe0qJ96B9H_XUCQD4hJA3fA6PSNe3CVEDy6IQMkT4D2aTeg-ogKZvw2qLKZIwJ_HiY7w0bSEVXBPBrEUfiximzUDCcYJp6UU1ecwpzuqBnFQvAhp4BhgexSEVMDxS_eJo0hxv9qZNx_cdjfiPH-xTzZpFcFIeE1a2foMTVe-YhMkWOS_kE050vKLjgXrB4agYgOhe5ltG6FFdK0gDX8uTbBFsfE1cCDlI3xTTU-J90sD1pCGq3J-Mu4abGnvSHf5zgUGM65Uc7ZiEtzOW-FGv6O9nwwRTY8n5JjkmLL4LoGksThwRLlGMxRyzV1sfx1XwvL2rVmkN1pAutV1QOjGZt1WC_q3]--></g></svg>